<svg xmlns="http://www.w3.org/2000/svg" width="500" height="500"><path d="M125 0h250c69 0 125 56 125 125v250c0 69-56 125-125 125H125C56 500 0 444 0 375V125C0 56 56 0 125 0z" fill="#eee"/><path d="M384.9 272.5c-1.3-35.5-6.7-70.9-6.7-106.4 0-28.9 5.4-59.1-5.4-86.7 0-2.6 1.3-6.6 1.3-9.2 2.7-14.4-44.4-6.6-51.1 6.6-4 3.9-6.7 7.9-5.4 13.1 0 1.3 1.3 2.6 1.3 3.9-9.4 42-21.5 84.1-35 124.8-5.4 15.8-12.1 31.5-17.5 47.3-8.1-14.4-16.1-28.9-22.9-44.7-18.8-46-35-91.9-57.8-135.3 2.7-19.7-43-18.4-52.5 0-10.8 22.3-9.4 44.7-5.4 69.6 4 27.6 5.4 53.9 5.4 81.4 0 52.5 5.4 105.1 5.4 157.6-5.4 5.3-6.7 11.8-1.3 18.4 2.7 2.6 5.4 5.3 8.1 7.9 12.1 9.2 47.1 1.3 47.1-17.1 0-55.2-4-109-5.4-164.2v-15.8c1.3 1.3 1.3 3.9 2.7 5.3 8.1 21 17.5 42 29.6 61.7 12.1 19.7 17.5 40.7 24.2 61.7-2.7 2.6-4 6.6-2.7 9.2 0 2.6 1.3 3.9 4 5.3 8.1 7.9 25.6 3.9 33.6 0 4-1.3 8.1-3.9 10.8-5.3 4-2.6 12.1-9.2 9.4-15.8 0-1.3-1.3-2.6-1.3-3.9 6.7-17.1 9.4-34.2 13.5-52.5 4-18.4 10.8-36.8 17.5-55.2 1.3 7.9 1.3 17.1 2.7 25 2.7 34.2 0 67 0 101.1 0 11.8 1.3 21 2.7 32.8 1.3 3.9 5.4 23.6 4 25-8.1 7.9-5.4 17.1 5.4 18.4 12.1 2.6 28.2-1.3 37.7-9.2 16.1-14.4 8.1-38.1 5.4-56.5-8.2-31.3-1.4-66.8-1.4-98.3z"/></svg>