<?xml version="1.0" encoding="UTF-8"?>
<!DOCTYPE svg PUBLIC "-//W3C//DTD SVG 1.1//EN" "http://www.w3.org/Graphics/SVG/1.1/DTD/svg11.dtd">
<!-- Creator: CorelDRAW 2019 (64-Bit) -->
<svg xmlns="http://www.w3.org/2000/svg" xml:space="preserve" width="40mm" height="40mm" version="1.1" style="shape-rendering:geometricPrecision; text-rendering:geometricPrecision; image-rendering:optimizeQuality; fill-rule:evenodd; clip-rule:evenodd"
viewBox="0 0 4000 4000"
 xmlns:xlink="http://www.w3.org/1999/xlink"
 xmlns:xodm="http://www.corel.com/coreldraw/odm/2003">
 <defs>
  <style type="text/css">
   <![CDATA[
    .fil1 {fill:black}
    .fil0 {fill:#EEEEEE}
   ]]>
  </style>
 </defs>
 <g id="Слой_x0020_1">
  <metadata id="CorelCorpID_0Corel-Layer"/>
  <g id="Favicon_x0020__x002f__x0020_152">
   <rect id="Rectangle_x0020_1" class="fil0" x="-6.61" y="6.6" width="4000" height="4000"/>
   <path id="Vector" class="fil1" d="M2824.21 2155.08c-8.79,-233.95 -43.98,-467.88 -43.98,-701.81 0,-190.61 35.19,-389.89 -35.18,-571.83 0,-17.34 8.79,-43.33 8.79,-60.66 17.6,-95.3 -290.23,-43.32 -334.21,43.32 -26.39,26 -43.97,51.99 -35.18,86.65 0,8.66 8.79,17.33 8.79,25.99 -61.56,277.26 -140.71,554.51 -228.67,823.1 -35.18,103.97 -79.15,207.94 -114.33,311.91 -52.77,-95.3 -105.54,-190.62 -149.52,-294.58 -123.12,-303.25 -228.66,-606.5 -378.18,-892.42 17.59,-129.96 -281.43,-121.29 -343,0 -70.37,147.29 -61.57,294.59 -35.19,459.2 26.39,181.96 35.19,355.24 35.19,537.18 0,346.58 35.18,693.15 35.18,1039.71 -35.18,34.65 -43.98,77.97 -8.8,121.31 17.59,17.32 35.18,34.64 52.77,51.97 79.15,60.66 307.82,8.66 307.82,-112.63 0,-363.89 -26.38,-719.13 -35.18,-1083.02 0,-34.66 0,-69.32 0,-103.98 8.8,8.67 8.8,26 17.6,34.66 52.76,138.63 114.33,277.25 193.49,407.22 79.15,129.96 114.33,268.59 158.3,407.2 -17.58,17.35 -26.38,43.35 -17.58,60.66 0,17.34 8.79,26 26.38,34.66 52.77,51.99 167.11,26 219.87,0 26.39,-8.66 52.78,-26 70.37,-34.66 26.38,-17.31 79.15,-60.66 61.56,-103.97 0,-8.66 -8.79,-17.32 -8.79,-25.98 43.98,-112.64 61.56,-225.28 87.95,-346.57 26.39,-121.31 70.36,-242.6 114.33,-363.9 8.8,51.99 8.8,112.64 17.59,164.62 17.59,225.26 0,441.87 0,667.14 0,77.98 8.8,138.63 17.59,216.61 8.79,26 35.18,155.94 26.39,164.61 -52.77,51.99 -35.18,112.66 35.18,121.31 79.15,17.31 184.7,-8.65 246.25,-60.66 105.55,-95.29 52.79,-251.26 35.18,-372.55 -52.76,-207.95 -8.78,-441.88 -8.78,-649.81z"/>
  </g>
 </g>
</svg>
